<?xml version="1.0" encoding="utf-8"?>
<!-- Generator: Adobe Illustrator 18.1.1, SVG Export Plug-In . SVG Version: 6.00 Build 0)  -->
<svg version="1.1" id="Capa_1" xmlns="http://www.w3.org/2000/svg" xmlns:xlink="http://www.w3.org/1999/xlink" x="0px" y="0px"
	 viewBox="0 0 167.5 55.4" enable-background="new 0 0 167.5 55.4" xml:space="preserve">
<g>
	<g>
		<path fill="#FFFFFF" d="M149.8,23.4c-0.1,0.4-0.1,0.8-0.2,1.1c-2.7,5.5-6,10.5-10.4,14.7c-1.3,1.2-2.4,2.6-3.6,4
			c-0.2,0.2-0.3,0.4-0.6,0.5c-0.9,0.6-1.9,1.7-3,1.1c-1.2-0.7-2.3-2-2.3-3.6c0-1,0.1-2.1,0.2-3.2c-0.4,0.5-0.8,1.1-1.3,1.6
			c-0.6,0.7-1.2,1.3-1.8,1.9c-1,1-2.1,2-3.2,2.9c-1.4,1.1-2,0.9-3.2-0.4c-1-1.1-1.3-2.3-1-3.7c0.7-2.8,1.9-5.4,3.4-7.9
			c1.3-2.3,2.9-4.6,4.3-6.9c0.6-1,1.5-1.1,2.5-0.6c0.5,0.3,1,0.6,1.5,0.9c1,0.5,1.3,1.6,0.6,2.5c-2.3,3.4-4.6,6.7-7,10.1
			c-0.2,0.3-0.4,0.7-0.6,1.1c0.1,0.1,0.1,0.1,0.2,0.2c1.4-1.1,2.9-2.2,4.3-3.3c0.7-0.5,1.4-1.1,2.1-1.7c0.6-0.6,1.1-1.2,1.5-1.9
			c1.1-1.9,2.2-3.8,3.2-5.7c0-0.1,0.1-0.2,0.1-0.2c0.6-1.5,1.2-1.7,2.7-1.1c0.6,0.3,1.2,0.5,1.9,0.8c1.4,0.6,1.5,1.8,0.7,3
			c-2,2.7-3.8,5.4-5.5,8.3c5.5-4.2,9.4-9.9,14.3-14.7C149.6,23.3,149.7,23.4,149.8,23.4z"/>
		<path fill="#FFFFFF" d="M109.8,41.6c1.5-0.2,2.9-0.4,4.4-0.6c0.9-0.1,1.9,0,2.7,0.1c1.4,0.3,2.5,2,2.4,3.4c-0.1,0.9-1,1.3-2.3,1.3
			c0.2-0.3,0.3-0.6,0.5-0.9c0-0.1-0.1-0.2-0.1-0.3c-1,0.1-2,0.2-3,0.4c-2.5,0.4-4.8,1.6-7,2.8c-1.8,1-2.7,0.7-3.7-1.1
			c-0.3-0.6-0.7-1.2-1-1.8c-0.3-0.7-0.2-1.3,0.6-1.6c0.2-0.1,0.5-0.3,0.5-0.6c0.6-3.7,2.1-7,3.9-10.2c3.1-5.7,6.3-11.4,9.4-17.1
			c0.4-0.7,0.5-1.4,0.7-2.1c0.2-0.9,1-1.6,1.8-1.4c1.6,0.3,3.3,0.6,4.8,1.1c1.4,0.4,1.5,1.1,0.5,2.2c-0.6,0.6-1.1,1.4-1.6,2.1
			c-4.9,7.7-9.1,15.8-13.4,23.8C109.8,41.4,109.8,41.5,109.8,41.6z"/>
		<path fill="#FFFFFF" d="M152,35.6c-1.1,1.6-1.7,3.2-1.5,5.1c0,0.4,0.7,0.8,1.1,1c0.4,0.1,0.9,0,1.3-0.2c2.9-1.3,5.6-2.9,7.8-5.1
			c0.2-0.2,0.4-0.3,0.5-0.5c0.1,0,0.1,0.1,0.2,0.1c-0.4,0.9-0.9,1.7-1.3,2.6c-1.3,2.8-3.7,4.5-6.4,5.7c-1.9,0.9-3.9,0.9-5.8-0.3
			c-2.2-1.4-3.1-3.4-2.8-6c0.4-3.8,2.2-6.9,4.8-9.5c1.2-1.2,2.7-2.2,4.1-3.2c0.4-0.3,1.1-0.3,1.5-0.2c1.7,0.4,3.4,0.8,4.7,1.9
			c1.6,1.3,1.9,2.3,1.2,4.2c-0.7,2.1-2.1,3.8-3.8,5.1C156.4,37.6,153.9,37.2,152,35.6z M157.8,29.5c-1.9,1.4-3.4,2.9-4.7,5
			c0.7,0.1,1.2,0.3,1.7,0.3c1,0,1.7-0.5,2.1-1.4C157.4,32.2,158.2,31.1,157.8,29.5z"/>
		<path fill="#FFFFFF" d="M131.3,21.5c0.1-0.5,0.1-0.9,0.4-1.3c0.9-1.6,1.8-3.2,2.8-4.8c0.5-0.7,1.2-1,2.1-0.7
			c0.9,0.4,1.7,0.8,2.5,1.3c0.6,0.4,0.5,1.5,0,1.9c-1.4,1-2.8,2-4.1,3.1C133.8,22,132.6,21.9,131.3,21.5z"/>
	</g>
	<g>
		<path fill="#FFFFFF" d="M61.9,36.8c1.5-1.4,2.9-2.8,4.4-4.1c2.8-2.5,5.6-5,8.5-7.5c1.1-1,2.6-0.8,3.7,0.1c0.8,0.7,0.9,2.5,0,3.8
			c-1.4,2.1-2.8,4.3-4.3,6.4c-0.2,0.4-0.4,0.8-0.5,1.4c0.2-0.1,0.5-0.2,0.7-0.3c1.7-1.4,3.6-2.7,5.2-4.3c1.3-1.3,2.2-2.9,3.5-4.2
			c1.3-1.4,2.7-2.6,4.1-3.8c0.2-0.2,0.6-0.3,0.8-0.2c1,0.3,1.9,0.5,2.8,1c1.3,0.6,2.5,1.4,3.9,2.2c0.3-0.5,0.7-1,1-1.6
			c2.3-4.2,4.5-8.5,6.8-12.7c0.2-0.4,0.4-0.7,0.5-1.1c0.4-1.3,0.8-1.6,2.1-1c0.8,0.4,1.6,0.8,2.4,1.3c1.3,0.7,1.4,1.9,0.5,3.2
			c-1.9,2.8-3.6,5.7-5.3,8.6c-3.4,5.8-6,12-8.2,18.3c-0.6,1.7-1.4,3.3-2.2,4.9c-0.2,0.4-0.9,0.8-1.1,0.7c-0.6-0.2-1.3-0.3-1.5-1.2
			c-0.4-2.4,0.2-4.7,0.7-6.9c0.2-0.8,0.3-1.5,0.4-2.4c-0.3,0.3-0.6,0.7-0.9,1c-1.6,1.5-3.1,3.1-4.8,4.5c-0.7,0.6-1.6,1-2.4,1.1
			c-2.2,0.3-4.5-2.1-4.5-4.5c0-0.6,0.1-1.2,0.2-2c-0.4,0.5-0.6,0.8-0.9,1.1c-1.2,1.3-2.4,2.7-3.6,4c-0.1,0.1-0.2,0.2-0.4,0.3
			c-1.1,0.7-2.2,1.6-3.5,0.9c-1.3-0.7-2.2-2-2.1-3.5c0.1-1.6,0.6-3.2,1-4.8c0.2-0.6,0.5-1.2,0.6-1.9c-1.7,1.8-3.5,3.7-5.2,5.5
			c-1.5,1.5-2.9,3-4.5,4.4c-1.6,1.5-3.1,1-4-1c-0.7-1.6-0.6-3.1,0-4.6c1.4-3.7,3.6-6.9,5.8-10.2c0.7-1,1.2-2.2,2-3.2
			c0.2-0.3,0.9-0.7,1.3-0.6c1.3,0.5,2.7,1.1,3.9,1.8c1.6,1,1.5,2,0,3.2c-2.9,2.1-5,5-6.9,7.9C61.8,36.7,61.9,36.8,61.9,36.8z
			 M82.4,40.3c0.7-0.5,1.5-0.9,2-1.4c2.3-2.5,4.5-5.1,6.7-7.7c0.5-0.6,1.1-1.3,1.7-2C89.1,29,82.3,36.3,82.4,40.3z"/>
		<path fill="#FFFFFF" d="M31.4,27.8c1.2,0.9,2.5,1.8,3.6,3c1.8,1.9,2,3.9,0.7,6.2c-1.3,2.4-3.1,4.3-5.3,5.9
			c-3.2,2.2-6.6,4.2-10.6,4.9c-0.7,0.1-1.3,0.2-2,0.3c-1.9,0.2-3.5-0.3-4.6-2c-0.2,0.3-0.4,0.5-0.6,0.7c-1.9-0.6-2.6-1.6-2.1-3.5
			c0.3-1.3,0.8-2.6,1.3-3.8c3.8-8.6,8.7-16.6,13.4-24.8c0.7-1.1,1.1-2.4,1.7-3.6c0.1-0.2,0.7-0.5,0.8-0.4c1.5,1.2,3.1,0.4,4.6,0.2
			c2.3-0.4,4.6-0.3,6.8,0.7c2.9,1.4,4.7,4.3,2.6,7.7c-1.8,3-4.5,5.1-7.4,7C33.3,26.9,32.2,27.4,31.4,27.8z M22.4,30.1
			c-0.1,0-0.2,0-0.3,0c-0.5,1.1-1,2.3-1.6,3.4c-1.4,2.8-2.8,5.6-4.2,8.4c-0.3,0.7-0.1,1,0.5,1c1.2-0.1,2.4-0.2,3.5-0.6
			c4-1.4,7.4-3.8,10.1-7.1c0.6-0.7,1-1.6,1.3-2.5c0.4-1.2-0.1-1.8-1.3-1.7c-0.3,0-0.6,0-0.9,0.1c-1.6,0.5-3.2,1-4.7,1.6
			c-0.8,0.3-1.2,0.1-1.4-0.7C23,31.4,22.7,30.7,22.4,30.1z M26.1,24.3c0.1,0.1,0.1,0.1,0.2,0.2c1.3-0.6,2.6-1,3.7-1.7
			c2.3-1.6,4.6-3.3,6.8-5c0.8-0.6,1.3-1.5,1.9-2.3c0.2-0.3,0.3-1,0.1-1.2c-0.3-0.3-0.9-0.5-1.3-0.4c-1.7,0.3-3.3,0.8-4.9,1.2
			c-0.3,0.1-0.7,0.3-0.9,0.6C29.7,18.6,27.9,21.5,26.1,24.3z"/>
		<path fill="#FFFFFF" d="M41.5,39.9c0.5-0.4,1-0.8,1.5-1.3c2-1.9,4-3.9,6-5.8c0.1-0.1,0.3-0.3,0.4-0.4c1-1.2,1-1.2,2.5-0.8
			c0.6,0.2,1.2,0.3,1.7,0.5c1.1,0.5,1.2,1.4,0.4,2.3c-0.9,1-1.6,2.2-2,3.6c1.4,0.1,2.2-0.8,3.2-1.4c0.1,1.4-0.3,2.7-1.2,3.6
			c-0.9,0.9-1.9,1.7-3,2.4c-1.7,1-3.4,0-3.5-2.1c0-1,0-2.1,0-3.2c-0.5,0.6-1.1,1.2-1.6,1.9c-1.2,1.5-2.5,3-3.7,4.4
			c-0.6,0.7-1.2,0.7-2.1,0.4c-1.4-0.5-2.5-1.2-3.2-2.5c-0.9-1.6-0.7-3.2,0-4.7C39,32.1,42,28.1,46.1,25c1.1-0.9,2-0.8,3.1-0.5
			c1.7,0.5,3.5,0.9,5.2,1.4c1.3,0.4,1.9,1.6,1.6,2.9c-0.2,1-2.1,1.5-2.9,0.7c-0.6-0.6-1.1-0.6-1.6-0.3c-0.9,0.4-1.8,0.9-2.6,1.6
			c-2.9,2.4-5.4,5.2-7.3,8.5c-0.1,0.2-0.2,0.3-0.2,0.5C41.4,39.8,41.4,39.8,41.5,39.9z"/>
	</g>
</g>
</svg>
